HIERARCHY
ROOT Hips
{
 OFFSET 0.000000 0.000000 0.000000
 CHANNELS 6 Xposition Yposition Zposition Yrotation Xrotation Zrotation
 JOINT Chest
 {
  OFFSET 0.000000 10.354800 0.006500
  CHANNELS 3 Yrotation Xrotation Zrotation
  JOINT Chest2
  {
   OFFSET 0.000000 10.435800 -0.013200
   CHANNELS 3 Yrotation Xrotation Zrotation
   JOINT Chest3
   {
    OFFSET 0.000000 10.393700 0.000000
    CHANNELS 3 Yrotation Xrotation Zrotation
    JOINT Chest4
    {
     OFFSET 0.000000 10.383100 0.000000
     CHANNELS 3 Yrotation Xrotation Zrotation
     JOINT Neck
     {
      OFFSET 0.000000 15.694000 0.000000
      CHANNELS 3 Yrotation Xrotation Zrotation
      JOINT Head
      {
       OFFSET 0.000000 9.711000 -0.028000
       CHANNELS 3 Yrotation Xrotation Zrotation
       End Site
       {
        OFFSET 0.000000 18.578700 -0.014800
       }
      }
     }
     JOINT RightCollar
     {
      OFFSET -3.157200 10.367500 0.000000
      CHANNELS 3 Yrotation Xrotation Zrotation
      JOINT RightShoulder
      {
       OFFSET -14.482500 0.000000 0.000000
       CHANNELS 3 Yrotation Xrotation Zrotation
       JOINT RightElbow
       {
        OFFSET 0.000000 -31.707800 0.000000
        CHANNELS 3 Yrotation Xrotation Zrotation
        JOINT RightWrist
        {
         OFFSET 0.000000 -25.659300 0.000000
         CHANNELS 3 Yrotation Xrotation Zrotation
         End Site
         {
          OFFSET 0.000000 -18.994300 0.000000
         }
        }
       }
      }
     }
     JOINT LeftCollar
     {
      OFFSET 3.157200 10.367500 0.000000
      CHANNELS 3 Yrotation Xrotation Zrotation
      JOINT LeftShoulder
      {
       OFFSET 14.482500 0.000000 0.000000
       CHANNELS 3 Yrotation Xrotation Zrotation
       JOINT LeftElbow
       {
        OFFSET 0.000000 -31.707800 0.000000
        CHANNELS 3 Yrotation Xrotation Zrotation
        JOINT LeftWrist
        {
         OFFSET 0.000000 -25.659300 0.000000
         CHANNELS 3 Yrotation Xrotation Zrotation
         End Site
         {
          OFFSET 0.000000 -18.994300 0.000000
         }
        }
       }
      }
     }
    }
   }
  }
 }
 JOINT RightHip
 {
  OFFSET -8.365600 -0.032100 -0.003200
  CHANNELS 3 Yrotation Xrotation Zrotation
  JOINT RightKnee
  {
   OFFSET 0.000000 -43.980000 0.003100
   CHANNELS 3 Yrotation Xrotation Zrotation
   JOINT RightAnkle
   {
    OFFSET 0.000000 -42.882800 0.005200
    CHANNELS 3 Yrotation Xrotation Zrotation
    JOINT RightToe
    {
     OFFSET 0.000000 -4.915500 10.826300
     CHANNELS 3 Yrotation Xrotation Zrotation
     End Site
     {
      OFFSET 0.000000 -1.517500 6.175900
     }
    }
   }
  }
 }
 JOINT LeftHip
 {
  OFFSET 8.365600 -0.032100 -0.003200
  CHANNELS 3 Yrotation Xrotation Zrotation
  JOINT LeftKnee
  {
   OFFSET 0.000000 -43.980000 0.003100
   CHANNELS 3 Yrotation Xrotation Zrotation
   JOINT LeftAnkle
   {
    OFFSET 0.000000 -42.882800 0.005200
    CHANNELS 3 Yrotation Xrotation Zrotation
    JOINT LeftToe
    {
     OFFSET 0.000000 -4.915500 10.826300
     CHANNELS 3 Yrotation Xrotation Zrotation
     End Site
     {
      OFFSET 0.000000 -1.517500 6.175900
     }
    }
   }
  }
 }
}
MOTION
Frames: 15
Frame Time: 0.008333
-5.451132 126.896887 31.959123 178.279294 -27.003084 -4.309947 -1.130704 8.870864 1.110688 -0.040668 0.465973 0.066733 -0.136821 0.843111 0.111777 -1.054611 8.292798 1.060987 -0.123527 20.187938 -2.117042 0.351291 -4.308773 -2.225757 1.537684 6.097487 -4.766172 7.291527 -5.325030 -8.969126 88.600810 -67.876503 -77.867263 -8.557100 7.106459 -7.278407 -2.621444 9.415162 0.824799 -2.868270 -8.993958 -0.053157 -95.096641 -50.828945 89.275666 -10.583388 -9.468733 19.481181 7.429198 -51.800218 -1.261449 -146.947390 77.401964 -140.241892 -0.731333 -20.095275 3.228117 -0.003654 0.000799 -0.001659 -15.448027 -50.053388 9.433782 144.040263 76.096208 139.959747 -1.376985 -23.342744 -2.098601 -0.010117 0.002538 -0.004594
-5.446429 126.898635 31.971511 178.267202 -27.053044 -4.311564 -1.204873 8.963190 1.098472 -0.068538 0.491546 0.065681 -0.118697 0.853695 0.113687 -1.099681 8.398448 1.047255 -0.136775 20.171530 -2.135420 0.341459 -4.327160 -2.242251 1.648086 5.984563 -4.682017 7.629167 -5.876653 -8.906364 82.679540 -66.289170 -71.847710 -7.210913 8.811350 -4.329824 -2.803642 9.269846 0.691596 -3.479336 -9.464121 -0.167951 -90.662509 -50.046941 84.924349 -10.911529 -9.140536 18.139666 7.442974 -51.765413 -1.239533 -146.918101 77.419493 -140.212963 -0.719523 -20.076127 3.233186 -0.005538 0.004758 -0.002515 -15.484410 -50.019341 9.498421 144.069571 76.109919 139.957543 -1.401979 -23.307618 -2.097942 -0.004970 0.000597 -0.002256
-5.442259 126.900399 31.983429 178.239957 -27.098147 -4.298133 -1.266306 9.053131 1.079898 -0.072253 0.505548 0.065933 -0.125030 0.877449 0.114092 -1.144803 8.507314 1.030924 -0.150061 20.150589 -2.152094 0.331165 -4.350655 -2.256823 1.777460 5.855798 -4.587328 8.066903 -6.442260 -8.879700 77.782688 -64.344363 -66.888761 -5.999629 9.773540 -1.897152 -3.006105 9.105006 0.554435 -4.052481 -9.932360 -0.218240 -86.510738 -49.227779 80.792335 -11.268964 -9.098502 17.262957 7.491756 -51.749005 -1.224431 -146.917777 77.443987 -140.213627 -0.742188 -20.041092 3.245035 -0.003551 0.000632 -0.001612 -15.457272 -49.981586 9.501993 143.982367 76.123362 139.864255 -1.406614 -23.284653 -2.103792 -0.007918 0.007010 -0.003596
-5.437533 126.905408 31.988697 178.198269 -27.175971 -4.276043 -1.312577 9.175874 1.060288 -0.076185 0.519693 0.066042 -0.131702 0.901304 0.114118 -1.192051 8.615224 1.011751 -0.160668 20.127480 -2.165847 0.322974 -4.376646 -2.268785 1.932982 5.727605 -4.482466 8.548737 -7.021350 -8.876743 73.877071 -62.126625 -62.875938 -5.157173 9.988941 -0.247727 -3.209798 8.943681 0.421294 -4.557523 -10.404970 -0.224224 -82.712676 -48.366263 76.920120 -11.644653 -9.303808 16.807775 7.537347 -51.696222 -1.192437 -146.917233 77.461572 -140.218972 -0.766226 -20.023511 3.251055 -0.001237 -0.005265 -0.000562 -15.401849 -49.910698 9.489776 143.907648 76.135755 139.783669 -1.415054 -23.259490 -2.106635 -0.012727 0.007473 -0.005779
-5.432895 126.911226 31.991804 178.159313 -27.255616 -4.251402 -1.317318 9.276680 1.044576 -0.124431 0.557300 0.065649 -0.088887 0.882588 0.114049 -1.291173 8.759477 0.990447 -0.168331 20.103649 -2.175826 0.317084 -4.403488 -2.277481 2.113812 5.614501 -4.371720 8.993659 -7.604615 -8.897090 70.865524 -59.807757 -59.627024 -4.765869 9.591112 0.510757 -3.405446 8.801493 0.302643 -5.013091 -10.875238 -0.187103 -79.284106 -47.482388 73.351585 -12.014352 -9.660736 16.668940 7.572448 -51.630956 -1.163315 -146.911757 77.480997 -140.222921 -0.786454 -20.017376 3.254589 -0.004249 -0.007322 -0.001929 -15.355246 -49.836820 9.491897 143.895248 76.150643 139.756027 -1.429535 -23.232250 -2.105887 -0.013462 0.005002 -0.006113
-5.427577 126.919901 31.988587 178.102681 -27.362895 -4.219267 -1.371442 9.442723 1.017265 -0.106953 0.558224 0.065535 -0.120052 0.926041 0.113807 -1.315114 8.834584 0.969797 -0.174609 20.077810 -2.183366 0.312126 -4.432687 -2.283933 2.312570 5.522064 -4.267100 9.376870 -8.166361 -8.942125 68.548174 -57.556552 -56.913161 -4.763977 8.713425 0.426754 -3.584537 8.683396 0.204872 -5.455057 -11.334417 -0.107288 -76.204136 -46.578916 70.124536 -12.332596 -10.084648 16.724178 7.600959 -51.537996 -1.108472 -146.844391 77.484197 -140.172302 -0.804060 -20.005952 3.258282 -0.004778 -0.009130 -0.002169 -15.282815 -49.730706 9.488408 143.905011 76.167305 139.748294 -1.433546 -23.210153 -2.110231 -0.012078 -0.002299 -0.005484
-5.420589 126.926108 31.989222 178.052499 -27.431295 -4.198665 -1.432966 9.574645 1.000290 -0.088090 0.559161 0.065831 -0.152160 0.968012 0.113456 -1.335296 8.906641 0.952523 -0.181338 20.045004 -2.191184 0.306728 -4.469883 -2.290393 2.517609 5.448256 -4.180920 9.769837 -8.674525 -9.009169 66.698839 -55.467742 -54.595038 -5.046662 7.493512 -0.312538 -3.743682 8.587589 0.123663 -5.932105 -11.786054 0.011850 -73.446531 -45.634470 67.271265 -12.568322 -10.495017 16.856092 7.597672 -51.480171 -1.029691 -146.743555 77.479119 -140.097376 -0.808328 -20.029037 3.249394 -0.004128 -0.011989 -0.001874 -15.275017 -49.644960 9.560271 143.999012 76.199466 139.799700 -1.462147 -23.205301 -2.104195 -0.003763 -0.002516 -0.001708
-5.416770 126.930598 31.990826 178.013387 -27.474537 -4.164812 -1.482755 9.676824 0.975518 -0.091967 0.571833 0.066022 -0.158740 0.989360 0.113697 -1.379438 8.997138 0.938509 -0.190688 20.000169 -2.201703 0.299199 -4.520752 -2.299025 2.718764 5.388141 -4.118643 10.284345 -9.098530 -9.092604 65.079968 -53.593437 -52.597300 -5.488563 6.093463 -1.433459 -3.883539 8.508777 0.051420 -6.472326 -12.235072 0.161737 -71.002115 -44.627832 64.800297 -12.730754 -10.810145 16.972322 7.628143 -51.436703 -1.016969 -146.828537 77.491093 -140.182452 -0.827960 -20.098588 3.206519 -0.006798 -0.016584 -0.003086 -15.213513 -49.603042 9.537433 143.991284 76.207241 139.790343 -1.455972 -23.196739 -2.110170 -0.011450 -0.007217 -0.005198
-5.412285 126.935017 31.990487 177.974609 -27.511314 -4.133737 -1.528142 9.780225 0.961974 -0.095672 0.584197 0.066329 -0.164961 1.010179 0.114138 -1.420072 9.084291 0.927344 -0.205539 19.942256 -2.215587 0.286641 -4.586269 -2.309918 2.908858 5.337285 -4.076644 10.973852 -9.435550 -9.174125 63.505790 -51.929009 -50.838461 -5.993130 4.650222 -2.690119 -4.005164 8.444559 -0.013603 -7.072302 -12.680759 0.334288 -68.856588 -43.554439 62.690473 -12.834670 -10.973470 16.993325 7.653298 -51.401311 -0.999831 -146.885334 77.488062 -140.240260 -0.841283 -20.136607 3.184096 -0.009971 -0.016673 -0.004526 -15.183874 -49.551976 9.558657 144.008899 76.218720 139.785304 -1.471989 -23.197451 -2.111276 -0.010598 -0.007533 -0.004811
-5.405518 126.938766 31.989254 177.934747 -27.534256 -4.114167 -1.565675 9.878358 0.965728 -0.098906 0.595807 0.066739 -0.170488 1.029808 0.114816 -1.454186 9.165416 0.919506 -0.227085 19.871716 -2.232366 0.336440 -4.679944 -2.343587 3.082147 5.289066 -4.044179 11.812912 -9.716711 -9.230796 61.915901 -50.417478 -49.263036 -6.500913 3.253476 -3.913478 -4.107466 8.393341 -0.068326 -7.700478 -13.123388 0.526655 -66.977162 -42.450718 60.881014 -12.907087 -10.956399 16.844522 7.583466 -51.370883 -0.865102 -146.741791 77.470401 -140.150744 -0.873468 -20.211931 3.152247 0.001581 -0.013192 0.000718 -15.170447 -49.509771 9.601405 144.037536 76.226070 139.794330 -1.485538 -23.202635 -2.114212 -0.010796 -0.007582 -0.004901
-5.401952 126.940178 31.988936 177.888226 -27.528623 -4.073818 -1.594470 9.956141 0.955469 -0.101812 0.606582 0.067303 -0.175422 1.047962 0.115721 -1.483443 9.239698 0.914999 -0.254628 19.788351 -2.251992 0.379188 -4.768232 -2.375538 3.238218 5.236776 -4.014366 12.734578 -9.974061 -9.253175 60.350360 -49.010632 -47.868877 -6.965626 1.965790 -4.995692 -4.187037 8.351894 -0.110255 -8.299985 -13.563552 0.732804 -65.332478 -41.397313 59.281246 -13.025444 -10.734802 16.467775 7.619664 -51.365628 -0.858960 -146.789060 77.464972 -140.198738 -0.876744 -20.353137 3.078984 -0.001598 -0.024358 -0.000725 -15.145829 -49.498910 9.629310 144.085038 76.238327 139.820332 -1.490345 -23.209714 -2.119727 -0.008707 -0.009406 -0.003953
-5.399728 126.940832 31.986596 177.847700 -27.511585 -4.028679 -1.618244 10.030030 0.944345 -0.104403 0.616468 0.068050 -0.179843 1.064536 0.116863 -1.508823 9.307017 0.914085 -0.289374 19.694342 -2.274657 0.244102 -4.862532 -2.360411 3.371344 5.178991 -3.987345 13.666035 -10.227899 -9.249018 58.852790 -47.709101 -46.632262 -7.350995 0.840821 -5.886247 -4.249356 8.317601 -0.140533 -8.823323 -13.993534 0.942909 -63.919199 -40.456623 57.844965 -13.259084 -10.285658 15.813332 7.657946 -51.366450 -0.866352 -146.854819 77.456746 -140.263204 -0.878631 -20.457416 3.013651 -0.008049 -0.060374 -0.003650 -15.154530 -49.479402 9.688671 144.174227 76.263146 139.861082 -1.513642 -23.234230 -2.121776 0.001937 -0.005071 0.000880
-5.395080 126.942175 31.980012 177.825741 -27.497083 -4.005383 -1.643294 10.113988 0.952944 -0.106469 0.625343 0.068938 -0.183464 1.079441 0.118272 -1.527683 9.367206 0.917020 -0.289551 19.554248 -2.309115 0.131519 -4.938845 -2.341680 3.475928 5.115853 -3.960709 14.551833 -10.487051 -9.232092 57.421789 -46.549680 -45.489228 -7.646100 -0.059737 -6.542390 -4.298844 8.285617 -0.160632 -9.274002 -14.398826 1.150529 -62.728685 -39.639979 56.575044 -13.627799 -9.610790 14.864596 7.632958 -51.355676 -0.822590 -146.891885 77.448627 -140.315385 -0.891086 -20.587195 2.956629 -0.009216 -0.068489 -0.004179 -15.172070 -49.462926 9.734283 144.220861 76.271369 139.876400 -1.524807 -23.259219 -2.127137 0.004333 -0.002515 0.001967
-5.387298 126.944355 31.969072 177.833568 -27.485099 -4.013380 -1.681276 10.210036 0.982404 -0.107957 0.633029 0.069852 -0.171057 1.027403 0.103525 -1.550989 9.484571 0.937318 -0.360012 19.470821 -2.326329 0.107531 -5.078069 -2.366556 3.554276 5.045609 -3.930480 15.358603 -10.748304 -9.207682 56.063925 -45.553640 -44.415281 -7.779642 -0.739038 -7.054974 -4.334861 8.251796 -0.169624 -9.683603 -14.767039 1.348421 -61.726570 -38.937181 55.472099 -14.117953 -8.743208 13.663803 7.520947 -51.310503 -0.707124 -146.807640 77.456804 -140.266516 -0.919263 -20.759719 2.910734 -0.001775 -0.021177 -0.000806 -15.214740 -49.449192 9.778039 144.249433 76.283566 139.887392 -1.512579 -23.263743 -2.127920 -0.003766 -0.004729 -0.001710
-5.386080 126.938364 31.969518 177.788029 -27.378536 -3.964218 -1.672622 10.214037 0.984880 -0.109031 0.639380 0.070725 -0.182273 1.069778 0.112762 -1.548339 9.495483 0.936141 -0.431614 19.384805 -2.340597 0.075242 -5.214036 -2.386277 3.610512 4.971624 -3.898596 16.056355 -11.011861 -9.172335 54.837401 -44.706642 -43.428212 -7.817607 -1.094640 -7.351320 -4.357683 8.215539 -0.168450 -10.064440 -15.090080 1.522126 -60.890733 -38.318860 54.534099 -14.667204 -7.763996 12.303356 7.563683 -51.383675 -0.726159 -146.782424 77.461042 -140.249777 -0.924428 -20.834129 2.889049 -0.005746 -0.002330 -0.002609 -15.191626 -49.551124 9.790078 144.281940 76.271688 139.921676 -1.508880 -23.276220 -2.121145 -0.006155 -0.011277 -0.002794
